<svg version="1.1" id="Layer_1" xmlns:x="ns_extend;" xmlns:i="ns_ai;" xmlns:graph="ns_graphs;" xmlns="http://www.w3.org/2000/svg" xmlns:xlink="http://www.w3.org/1999/xlink" x="0px" y="0px" viewBox="0 0 278.6 40" style="enable-background:new 0 0 278.6 40;" xml:space="preserve">
 <style type="text/css">
  .st0{fill:#FFFFFF;}
 </style>
 <metadata>
  <sfw xmlns="ns_sfw;">
   <slices>
   </slices>
   <sliceSourceBounds bottomLeftOrigin="true" height="40" width="278.6" x="-44.7" y="-173.7">
   </sliceSourceBounds>
  </sfw>
 </metadata>
 <g>
  <path class="st0" d="M0,30.7h4l0-27l8,27h3.1l8-26.9v26.9h4.2V0.4h-7l-6.7,22.7L7,0.4H0V30.7z M41.7,7.7c-6,0-10,4.2-10,11.8
		c0,7.6,3.9,11.7,10,11.7c6,0,10-4.2,10-11.7C51.7,11.9,47.8,7.7,41.7,7.7 M35.9,19.5c0-5.9,2.4-8.6,5.8-8.6c3.4,0,5.8,2.7,5.8,8.6
		c0,5.9-2.4,8.6-5.8,8.6C38.4,28,35.9,25.4,35.9,19.5 M56,30.7h4.2V15.5c2.1-3.3,4.1-4.2,6.1-4.2c0.5,0,1,0,1.3,0.2V7.6
		c-0.3-0.1-0.8-0.2-1.3-0.2c-2.1,0-4.5,1.5-6.1,4.3V8.1H56V30.7z M77.6,31.1c2.5,0,4.2-1,5.9-2.4v1.6c0,3.9-1.3,6.2-5.7,6.2
		c-2.5,0-4.6-0.9-6.5-2.1l-1.7,3.2c1.8,1.2,5.2,2.3,8.4,2.3c6,0,9.8-3.4,9.8-9V8.1h-4.1V10c-1.7-1.4-3.5-2.3-6-2.3
		c-4.9,0-9.3,3.3-9.3,11.7C68.4,27.9,72.8,31.1,77.6,31.1 M72.5,19.5c0-6.2,2.6-8.6,5.6-8.6c2.1,0,3.5,0.8,5.3,2.4v12.4
		c-1.8,1.6-3.3,2.3-5.3,2.3C75.1,28,72.5,25.7,72.5,19.5 M98.7,31.2c2.3,0,4.6-1.1,6.5-2.7c0.6,1.6,2,2.4,4.3,2.4
		c0.6,0,1.1-0.1,1.6-0.3v-3c-0.3,0-0.5,0-0.8,0c-1,0-1.4-0.4-1.4-1.4V14.8c0-4.3-2.8-7.2-7.8-7.2c-3.8,0-7.3,1.8-9.6,4.7l2.6,2.3
		c2-2.3,4.3-3.6,6.5-3.6c3.3,0,4.2,1.9,4.2,4.2v1l-4.5,1c-6.6,1.5-8.8,4.3-8.8,7.8C91.7,28.2,93.9,31.2,98.7,31.2 M95.8,24.8
		c0-2.1,1.2-3.6,5.1-4.6l4.1-1v6.5c-1.7,1.4-3.6,2.4-5.5,2.4C97,28.2,95.8,26.6,95.8,24.8 M115,30.7h4.2v-17
		c1.8-1.9,3.7-2.9,5.7-2.9c2,0,3.5,1.3,3.5,3.7v16.1h4.2v-16c0-4.7-2.6-7.2-6.6-7.2c-2.4,0-4.7,0.8-6.8,2.8V8.1H115V30.7z
		 M154.6,31.1c5.6,0,10.4-3.1,10.4-8.5c0-5.5-3.7-7.2-10-9.3c-3.8-1.3-6.8-2.3-6.8-5.3c0-3.2,2.5-4.5,5.5-4.5c3.2,0,5.8,1.8,7.2,4.8
		l3.4-1.8c-2-4.5-6.1-6.6-10.6-6.6c-5.3,0-9.8,3-9.8,8.4c0,5,3.6,7,9.4,8.8c4.2,1.3,7.3,2.4,7.3,5.7c0,3.3-2.8,4.6-6,4.6
		c-3.7,0-6.7-1.8-8.2-4.9l-3.4,2C145.1,28.8,149.5,31.1,154.6,31.1 M176.8,27.6c-1.7,0-2.5-0.7-2.5-2.3v-14h4.2V8.1h-4.2V1.9h-4.2
		v6.2h-3.7v3.2h3.7V26c0,3.2,1.8,4.9,5.8,4.9c0.8,0,1.6-0.1,2.6-0.3v-3C177.8,27.6,177.5,27.6,176.8,27.6 M188.1,31.2
		c2.3,0,4.6-1.1,6.5-2.7c0.6,1.6,2,2.4,4.3,2.4c0.6,0,1.1-0.1,1.6-0.3v-3c-0.3,0-0.5,0-0.8,0c-1,0-1.4-0.4-1.4-1.4V14.8
		c0-4.3-2.8-7.2-7.8-7.2c-3.8,0-7.3,1.8-9.6,4.7l2.6,2.3c2-2.3,4.3-3.6,6.5-3.6c3.3,0,4.2,1.9,4.2,4.2v1l-4.5,1
		c-6.6,1.5-8.8,4.3-8.8,7.8C181.1,28.2,183.3,31.2,188.1,31.2 M185.2,24.8c0-2.1,1.2-3.6,5.1-4.6l4.1-1v6.5
		c-1.7,1.4-3.6,2.4-5.5,2.4C186.4,28.2,185.2,26.6,185.2,24.8 M204.4,30.7h4.2v-17c1.8-1.9,3.7-2.9,5.7-2.9c2,0,3.5,1.3,3.5,3.7
		v16.1h4.2v-16c0-4.7-2.6-7.2-6.6-7.2c-2.4,0-4.7,0.8-6.8,2.8V8.1h-4.2V30.7z M233.6,27.5c-1.5,0-2.1-0.6-2.1-2.1v-25h-4.2v25.5
		c0,3.1,1.7,4.9,5.4,4.9c0.8,0,1.6-0.1,2.4-0.3v-3.2C234.6,27.5,234.1,27.5,233.6,27.5 M256,26.1l-3.1-1.8c-1.4,2.6-3.3,3.8-5.8,3.8
		c-3.3,0-5.7-2.3-6-7.6h15.1V19c0-7.4-3.8-11.4-9.4-11.4c-5.9,0-9.9,4.1-9.9,11.8c0,7.8,4.1,11.7,10.1,11.7
		C251.4,31.2,254,29.4,256,26.1 M246.9,10.8c2.9,0,5,2,5.4,6.6h-11C241.7,12.8,243.9,10.8,246.9,10.8 M261.9,36.6
		c-0.8,0-1.6-0.2-2.6-0.6l-1.1,3.2c1.3,0.6,2.6,0.9,3.9,0.9c3.6,0,5.5-1.8,7-5.8l9.4-26.1h-4.2L268.3,26l-6.3-17.9h-4.4l8.6,23.2
		l-0.6,1.6C264.5,35.5,263.8,36.6,261.9,36.6">
  </path>
 </g>
</svg>